<mxfile host="Electron" modified="2023-04-28T09:11:56.455Z" agent="Mozilla/5.0 (X11; Linux x86_64) AppleWebKit/537.36 (KHTML, like Gecko) draw.io/21.2.1 Chrome/112.0.5615.87 Electron/24.1.2 Safari/537.36" etag="PHdZCKyCQEdEAvxrC-uQ" version="21.2.1" type="device">
  <diagram name="Page-1" id="UY4hCyXo2259MbdRgzdy">
    <mxGraphModel dx="1600" dy="843" grid="1" gridSize="10" guides="1" tooltips="1" connect="1" arrows="1" fold="1" page="1" pageScale="1" pageWidth="827" pageHeight="1169" math="0" shadow="0">
      <root>
        <mxCell id="0" />
        <mxCell id="1" parent="0" />
        <mxCell id="2h3wo2-aDn0wdL-ZUtug-1" value="usager" style="shape=umlLifeline;perimeter=lifelinePerimeter;whiteSpace=wrap;html=1;container=1;dropTarget=0;collapsible=0;recursiveResize=0;outlineConnect=0;portConstraint=eastwest;newEdgeStyle={&quot;edgeStyle&quot;:&quot;elbowEdgeStyle&quot;,&quot;elbow&quot;:&quot;vertical&quot;,&quot;curved&quot;:0,&quot;rounded&quot;:0};participant=umlActor;" parent="1" vertex="1">
          <mxGeometry x="100" y="120" width="20" height="390" as="geometry" />
        </mxCell>
        <mxCell id="2h3wo2-aDn0wdL-ZUtug-5" value="guichet" style="shape=umlLifeline;perimeter=lifelinePerimeter;whiteSpace=wrap;html=1;container=1;dropTarget=0;collapsible=0;recursiveResize=0;outlineConnect=0;portConstraint=eastwest;newEdgeStyle={&quot;edgeStyle&quot;:&quot;elbowEdgeStyle&quot;,&quot;elbow&quot;:&quot;vertical&quot;,&quot;curved&quot;:0,&quot;rounded&quot;:0};participant=umlActor;" parent="1" vertex="1">
          <mxGeometry x="460" y="120" width="20" height="380" as="geometry" />
        </mxCell>
        <mxCell id="2h3wo2-aDn0wdL-ZUtug-6" value="employe" style="shape=umlLifeline;perimeter=lifelinePerimeter;whiteSpace=wrap;html=1;container=1;dropTarget=0;collapsible=0;recursiveResize=0;outlineConnect=0;portConstraint=eastwest;newEdgeStyle={&quot;edgeStyle&quot;:&quot;elbowEdgeStyle&quot;,&quot;elbow&quot;:&quot;vertical&quot;,&quot;curved&quot;:0,&quot;rounded&quot;:0};participant=umlActor;" parent="1" vertex="1">
          <mxGeometry x="550" y="120" width="20" height="380" as="geometry" />
        </mxCell>
        <mxCell id="2h3wo2-aDn0wdL-ZUtug-7" value="emprunte un document" style="endArrow=classic;html=1;rounded=0;exitX=0.45;exitY=0.177;exitDx=0;exitDy=0;exitPerimeter=0;" parent="1" source="2h3wo2-aDn0wdL-ZUtug-1" target="2h3wo2-aDn0wdL-ZUtug-5" edge="1">
          <mxGeometry width="50" height="50" relative="1" as="geometry">
            <mxPoint x="390" y="340" as="sourcePoint" />
            <mxPoint x="440" y="290" as="targetPoint" />
          </mxGeometry>
        </mxCell>
        <mxCell id="2h3wo2-aDn0wdL-ZUtug-8" value="identification" style="endArrow=classic;html=1;rounded=0;" parent="1" source="2h3wo2-aDn0wdL-ZUtug-5" target="2h3wo2-aDn0wdL-ZUtug-1" edge="1">
          <mxGeometry width="50" height="50" relative="1" as="geometry">
            <mxPoint x="450" y="220" as="sourcePoint" />
            <mxPoint x="440" y="290" as="targetPoint" />
            <Array as="points">
              <mxPoint x="430" y="230" />
              <mxPoint x="340" y="230" />
            </Array>
          </mxGeometry>
        </mxCell>
        <mxCell id="2h3wo2-aDn0wdL-ZUtug-9" value="vérification du nombre d&#39;emprunts" style="endArrow=classic;html=1;rounded=0;" parent="1" source="2h3wo2-aDn0wdL-ZUtug-5" target="2h3wo2-aDn0wdL-ZUtug-1" edge="1">
          <mxGeometry width="50" height="50" relative="1" as="geometry">
            <mxPoint x="390" y="340" as="sourcePoint" />
            <mxPoint x="440" y="290" as="targetPoint" />
            <Array as="points">
              <mxPoint x="250" y="270" />
            </Array>
          </mxGeometry>
        </mxCell>
        <mxCell id="2h3wo2-aDn0wdL-ZUtug-10" value="demande d&#39;inscription" style="endArrow=classic;html=1;rounded=0;" parent="1" source="2h3wo2-aDn0wdL-ZUtug-1" target="2h3wo2-aDn0wdL-ZUtug-6" edge="1">
          <mxGeometry width="50" height="50" relative="1" as="geometry">
            <mxPoint x="390" y="340" as="sourcePoint" />
            <mxPoint x="440" y="290" as="targetPoint" />
            <Array as="points">
              <mxPoint x="380" y="310" />
            </Array>
          </mxGeometry>
        </mxCell>
        <mxCell id="ZTy_NOftBDlpddLuCxFI-1" value="optention carte lecteur" style="endArrow=classic;html=1;rounded=0;" parent="1" source="2h3wo2-aDn0wdL-ZUtug-6" target="2h3wo2-aDn0wdL-ZUtug-1" edge="1">
          <mxGeometry width="50" height="50" relative="1" as="geometry">
            <mxPoint x="390" y="460" as="sourcePoint" />
            <mxPoint x="440" y="410" as="targetPoint" />
            <Array as="points">
              <mxPoint x="480" y="350" />
              <mxPoint x="440" y="350" />
            </Array>
          </mxGeometry>
        </mxCell>
        <mxCell id="GH5DigpEUFXNHnTtTzMi-1" value="" style="endArrow=classic;html=1;rounded=0;" edge="1" parent="1" source="2h3wo2-aDn0wdL-ZUtug-1" target="GH5DigpEUFXNHnTtTzMi-2">
          <mxGeometry width="50" height="50" relative="1" as="geometry">
            <mxPoint x="390" y="460" as="sourcePoint" />
            <mxPoint x="560" y="400" as="targetPoint" />
            <Array as="points">
              <mxPoint x="500" y="400" />
            </Array>
          </mxGeometry>
        </mxCell>
        <mxCell id="GH5DigpEUFXNHnTtTzMi-2" value="bénévole" style="shape=umlLifeline;perimeter=lifelinePerimeter;whiteSpace=wrap;html=1;container=1;dropTarget=0;collapsible=0;recursiveResize=0;outlineConnect=0;portConstraint=eastwest;newEdgeStyle={&quot;edgeStyle&quot;:&quot;elbowEdgeStyle&quot;,&quot;elbow&quot;:&quot;vertical&quot;,&quot;curved&quot;:0,&quot;rounded&quot;:0};participant=umlActor;" vertex="1" parent="1">
          <mxGeometry x="670" y="120" width="20" height="380" as="geometry" />
        </mxCell>
      </root>
    </mxGraphModel>
  </diagram>
</mxfile>
